<svg xmlns="http://www.w3.org/2000/svg" fill="none" viewBox="0 0 214 46" height="46" width="214">
<rect fill="#CD3D1C" rx="12" height="46" width="46"></rect>
<rect fill="url(#paint0_linear_6852_4199)" transform="rotate(-45 7.31836 16.019)" rx="3.23618" height="22.191" width="6.47236" y="16.019" x="7.31836"></rect>
<rect fill="url(#paint1_linear_6852_4199)" transform="rotate(45 34.1055 11.4424)" rx="3.23618" height="22.191" width="6.47236" y="11.4424" x="34.1055"></rect>
<rect fill="white" rx="3.23618" height="22.191" width="6.47236" y="12.3672" x="8.24316"></rect>
<rect fill="white" rx="3.23618" height="22.191" width="6.47236" y="12.3672" x="31.3584"></rect>
<path fill="white" d="M53.76 32V14.528H58.24V16.672C58.688 15.8187 59.3387 15.1893 60.192 14.784C61.0453 14.3573 62.0267 14.144 63.136 14.144C64.288 14.144 65.3333 14.3893 66.272 14.88C67.232 15.3493 67.9573 16 68.448 16.832C69.0667 15.9147 69.8347 15.2427 70.752 14.816C71.6907 14.368 72.7253 14.144 73.856 14.144C75.1147 14.144 76.224 14.4213 77.184 14.976C78.1653 15.5307 78.9333 16.3093 79.488 17.312C80.0427 18.2933 80.32 19.4453 80.32 20.768V32H75.52V21.792C75.52 20.7893 75.2427 19.9893 74.688 19.392C74.1547 18.7733 73.4187 18.464 72.48 18.464C71.5413 18.464 70.7947 18.7733 70.24 19.392C69.7067 19.9893 69.44 20.7893 69.44 21.792V32H64.64V21.792C64.64 20.7893 64.3627 19.9893 63.808 19.392C63.2747 18.7733 62.5387 18.464 61.6 18.464C60.6613 18.464 59.9147 18.7733 59.36 19.392C58.8267 19.9893 58.56 20.7893 58.56 21.792V32H53.76ZM90.6147 32.384C88.7587 32.384 87.1481 31.9787 85.7827 31.168C84.4174 30.336 83.3614 29.2267 82.6147 27.84C81.8681 26.4533 81.4947 24.9173 81.4947 23.232C81.4947 21.4827 81.8787 19.9253 82.6467 18.56C83.4361 17.1947 84.4921 16.1173 85.8147 15.328C87.1374 14.5387 88.6307 14.144 90.2948 14.144C92.1507 14.144 93.7187 14.528 94.9987 15.296C96.2788 16.064 97.2494 17.0987 97.9107 18.4C98.5934 19.68 98.9347 21.1307 98.9347 22.752C98.9347 23.0933 98.9134 23.4347 98.8708 23.776C98.8494 24.096 98.7961 24.3733 98.7108 24.608H86.4867C86.6147 25.696 87.0521 26.5707 87.7987 27.232C88.5454 27.8933 89.5054 28.224 90.6788 28.224C91.5321 28.224 92.2574 28.0533 92.8547 27.712C93.4734 27.3707 93.9534 26.9013 94.2948 26.304L98.1348 28.128C97.6014 29.408 96.6627 30.4427 95.3188 31.232C93.9747 32 92.4067 32.384 90.6147 32.384ZM90.2948 17.984C89.3561 17.984 88.5561 18.2507 87.8947 18.784C87.2547 19.3173 86.8174 20.0853 86.5827 21.088H93.8468C93.7401 20.1707 93.3668 19.424 92.7267 18.848C92.0867 18.272 91.2761 17.984 90.2948 17.984ZM109.057 39.04C107.713 39.04 106.465 38.816 105.313 38.368C104.161 37.92 103.169 37.2907 102.337 36.48C101.527 35.6907 100.94 34.752 100.577 33.664L105.025 32.096C105.26 32.9067 105.74 33.5467 106.465 34.016C107.191 34.4853 108.055 34.72 109.057 34.72C110.252 34.72 111.191 34.3893 111.873 33.728C112.556 33.088 112.897 32.2027 112.897 31.072V29.408C111.745 30.56 110.188 31.136 108.225 31.136C106.604 31.136 105.153 30.7733 103.873 30.048C102.593 29.3013 101.591 28.288 100.865 27.008C100.14 25.7067 99.7772 24.2347 99.7772 22.592C99.7772 20.9493 100.14 19.4987 100.865 18.24C101.591 16.96 102.583 15.9573 103.841 15.232C105.1 14.5067 106.529 14.144 108.129 14.144C110.284 14.144 111.98 14.88 113.217 16.352V14.528H117.697V31.072C117.697 32.608 117.324 33.9733 116.577 35.168C115.831 36.384 114.807 37.3333 113.505 38.016C112.225 38.6987 110.743 39.04 109.057 39.04ZM108.897 26.784C110.092 26.784 111.052 26.4107 111.777 25.664C112.524 24.896 112.897 23.8933 112.897 22.656C112.897 21.3973 112.524 20.384 111.777 19.616C111.052 18.848 110.092 18.464 108.897 18.464C107.681 18.464 106.679 18.8587 105.889 19.648C105.121 20.416 104.737 21.4187 104.737 22.656C104.737 23.872 105.121 24.864 105.889 25.632C106.679 26.4 107.681 26.784 108.897 26.784ZM125.359 32.384C123.482 32.384 121.989 31.936 120.879 31.04C119.791 30.144 119.247 28.9067 119.247 27.328C119.247 25.856 119.759 24.64 120.783 23.68C121.807 22.72 123.365 22.0693 125.455 21.728L130.287 20.96V20.48C130.287 19.8187 130.021 19.264 129.487 18.816C128.975 18.368 128.271 18.144 127.375 18.144C126.522 18.144 125.765 18.3787 125.103 18.848C124.463 19.3173 123.994 19.936 123.695 20.704L119.855 18.88C120.367 17.4293 121.317 16.2773 122.703 15.424C124.111 14.5707 125.743 14.144 127.599 14.144C129.071 14.144 130.373 14.4107 131.503 14.944C132.634 15.4773 133.509 16.224 134.127 17.184C134.767 18.1227 135.087 19.2213 135.087 20.48V32H130.607V30.368C129.285 31.712 127.535 32.384 125.359 32.384ZM124.207 27.168C124.207 27.7013 124.41 28.1173 124.815 28.416C125.221 28.7147 125.722 28.864 126.319 28.864C127.514 28.864 128.474 28.4907 129.199 27.744C129.925 26.9973 130.287 26.0907 130.287 25.024V24.48L126.319 25.184C125.637 25.312 125.114 25.536 124.751 25.856C124.389 26.1547 124.207 26.592 124.207 27.168ZM144.175 32.384C142.255 32.384 140.581 31.936 139.151 31.04C137.743 30.1227 136.783 28.896 136.271 27.36L139.791 25.696C140.239 26.6347 140.847 27.3707 141.615 27.904C142.383 28.4373 143.237 28.704 144.175 28.704C145.583 28.704 146.287 28.1813 146.287 27.136C146.287 26.432 145.711 25.92 144.559 25.6L141.583 24.768C140.154 24.3627 139.055 23.712 138.287 22.816C137.519 21.8987 137.135 20.8213 137.135 19.584C137.135 18.496 137.413 17.5467 137.967 16.736C138.522 15.9253 139.301 15.296 140.303 14.848C141.306 14.3787 142.458 14.144 143.759 14.144C145.466 14.144 146.959 14.5493 148.239 15.36C149.541 16.1493 150.458 17.2693 150.991 18.72L147.439 20.384C147.183 19.6587 146.714 19.0827 146.031 18.656C145.37 18.208 144.613 17.984 143.759 17.984C143.141 17.984 142.65 18.112 142.287 18.368C141.946 18.624 141.775 18.976 141.775 19.424C141.775 20.1067 142.405 20.6293 143.663 20.992L146.447 21.824C147.898 22.2507 149.007 22.9013 149.775 23.776C150.543 24.6293 150.927 25.6853 150.927 26.944C150.927 28.5653 150.309 29.8773 149.071 30.88C147.834 31.8827 146.202 32.384 144.175 32.384ZM160.932 32.192C158.82 32.192 157.178 31.6267 156.004 30.496C154.852 29.344 154.276 27.744 154.276 25.696V18.688H151.332V14.528H151.492C153.348 14.528 154.276 13.632 154.276 11.84V10.56H159.076V14.528H163.172V18.688H159.076V25.376C159.076 27.1467 160.068 28.032 162.052 28.032C162.351 28.032 162.724 28 163.172 27.936V32C162.852 32.0427 162.49 32.0853 162.084 32.128C161.679 32.1707 161.295 32.192 160.932 32.192ZM173.377 32.384C171.649 32.384 170.07 31.9893 168.641 31.2C167.233 30.4107 166.102 29.3333 165.249 27.968C164.417 26.5813 164.001 25.0133 164.001 23.264C164.001 21.4933 164.417 19.9253 165.249 18.56C166.102 17.1947 167.233 16.1173 168.641 15.328C170.07 14.5387 171.649 14.144 173.377 14.144C175.105 14.144 176.673 14.5387 178.081 15.328C179.489 16.1173 180.609 17.1947 181.441 18.56C182.294 19.9253 182.721 21.4933 182.721 23.264C182.721 25.0133 182.294 26.5813 181.441 27.968C180.609 29.3333 179.489 30.4107 178.081 31.2C176.673 31.9893 175.105 32.384 173.377 32.384ZM173.377 28.064C174.678 28.064 175.734 27.616 176.545 26.72C177.356 25.824 177.761 24.672 177.761 23.264C177.761 21.8773 177.356 20.736 176.545 19.84C175.734 18.9227 174.678 18.464 173.377 18.464C172.076 18.464 171.009 18.9227 170.177 19.84C169.366 20.736 168.961 21.8773 168.961 23.264C168.961 24.672 169.366 25.824 170.177 26.72C171.009 27.616 172.076 28.064 173.377 28.064ZM184.269 32V14.528H188.749V17.152C189.197 16.064 189.826 15.328 190.637 14.944C191.469 14.5387 192.418 14.336 193.485 14.336H194.509V18.496H193.005C191.831 18.496 190.882 18.8587 190.157 19.584C189.431 20.288 189.069 21.2907 189.069 22.592V32H184.269ZM203.748 32.384C201.892 32.384 200.282 31.9787 198.916 31.168C197.551 30.336 196.495 29.2267 195.748 27.84C195.002 26.4533 194.628 24.9173 194.628 23.232C194.628 21.4827 195.012 19.9253 195.78 18.56C196.57 17.1947 197.626 16.1173 198.948 15.328C200.271 14.5387 201.764 14.144 203.428 14.144C205.284 14.144 206.852 14.528 208.132 15.296C209.412 16.064 210.383 17.0987 211.044 18.4C211.727 19.68 212.068 21.1307 212.068 22.752C212.068 23.0933 212.047 23.4347 212.004 23.776C211.983 24.096 211.93 24.3733 211.844 24.608H199.62C199.748 25.696 200.186 26.5707 200.932 27.232C201.679 27.8933 202.639 28.224 203.812 28.224C204.666 28.224 205.391 28.0533 205.988 27.712C206.607 27.3707 207.087 26.9013 207.428 26.304L211.268 28.128C210.735 29.408 209.796 30.4427 208.452 31.232C207.108 32 205.54 32.384 203.748 32.384ZM203.428 17.984C202.49 17.984 201.69 18.2507 201.028 18.784C200.388 19.3173 199.951 20.0853 199.716 21.088H206.98C206.874 20.1707 206.5 19.424 205.86 18.848C205.22 18.272 204.41 17.984 203.428 17.984Z"></path>
<defs>
<linearGradient gradientUnits="userSpaceOnUse" y2="38.21" x2="10.5545" y1="16.019" x1="10.5545" id="paint0_linear_6852_4199">
<stop stop-color="white"></stop>
<stop stop-opacity="0" stop-color="white" offset="1"></stop>
</linearGradient>
<linearGradient gradientUnits="userSpaceOnUse" y2="33.6333" x2="37.3416" y1="11.4424" x1="37.3416" id="paint1_linear_6852_4199">
<stop stop-opacity="0" stop-color="white"></stop>
<stop stop-color="white" offset="1"></stop>
</linearGradient>
</defs>
</svg>
